<svg version="1.1" xmlns="http://www.w3.org/2000/svg" xmlns:xlink="http://www.w3.org/1999/xlink" width="82.70071" height="83.52081" viewBox="0,0,82.70071,83.52081"><g transform="translate(-198.75983,-138.23961)"><g data-paper-data="{&quot;isPaintingLayer&quot;:true}" fill-rule="nonzero" stroke-linecap="butt" stroke-linejoin="miter" stroke-miterlimit="10" stroke-dasharray="" stroke-dashoffset="0" style="mix-blend-mode: normal"><g fill="#FAFAFA" stroke="#000000" stroke-width="5"><path d="M213.61704,219.26042c-6.8249,0 -12.3572,-5.53518 -12.3572,-12.35864v-53.80497c0,-6.8249 5.5323,-12.3572 12.3572,-12.3572h33.00966c-0.17596,26.17305 -0.27947,52.34689 -0.30554,78.52081z"/><path d="M233.89922,219.26042c-0.02607,-26.17393 -0.12958,-52.34776 -0.30553,-78.52081h33.00966c6.8249,0 12.3572,5.5323 12.3572,12.3572v53.80497c0,6.82346 -5.5323,12.35864 -12.3572,12.35864z" data-paper-data="{&quot;index&quot;:null}"/></g><path d="M213.61704,219.26042c-6.8249,0 -12.3572,-5.53518 -12.3572,-12.35864v-53.80497c0,-6.8249 5.5323,-12.3572 12.3572,-12.3572h33.00966c-0.17596,26.17305 -0.27947,52.34689 -0.30554,78.52081z" fill="#FAFAFA" stroke="none" stroke-width="1"/><path d="M233.89922,219.26042c-0.02607,-26.17393 -0.12958,-52.34776 -0.30553,-78.52081h33.00966c6.8249,0 12.3572,5.5323 12.3572,12.3572v53.80497c0,6.82346 -5.5323,12.35864 -12.3572,12.35864z" data-paper-data="{&quot;index&quot;:null}" fill="#FAFAFA" stroke="none" stroke-width="1"/><path d="M223.66668,171.83334c0,-2.25516 1.82817,-4.08333 4.08333,-4.08333h24.5c2.25516,0 4.08333,1.82817 4.08333,4.08333v16.33333c0,2.25516 -1.82817,4.08333 -4.08333,4.08333h-24.5c-2.25516,0 -4.08333,-1.82817 -4.08333,-4.08333zM227.75001,169.79168c-1.12758,0 -2.04167,0.91409 -2.04167,2.04167v0.44304l14.29167,8.575l14.29167,-8.575v-0.44304c0,-1.12758 -0.9141,-2.04167 -2.04167,-2.04167zM254.29168,174.65697l-9.61217,5.76771l9.61217,5.91471zM254.22226,188.69547l-11.515,-7.08662l-2.70725,1.62312l-2.70725,-1.62312l-11.515,7.08458c0.23855,0.8933 1.04765,1.51478 1.97225,1.51492h24.5c0.92402,0.00011 1.73293,-0.62038 1.97225,-1.51287zM225.70834,186.33938l9.61217,-5.91471l-9.61217,-5.76771z" fill="#000000" stroke="none" stroke-width="1"/></g></g></svg>