<svg version="1.1" xmlns="http://www.w3.org/2000/svg" xmlns:xlink="http://www.w3.org/1999/xlink" width="82.70071" height="83.52081" viewBox="0,0,82.70071,83.52081"><g transform="translate(-198.75983,-138.23961)"><g data-paper-data="{&quot;isPaintingLayer&quot;:true}" stroke-linecap="butt" stroke-linejoin="miter" stroke-miterlimit="10" stroke-dasharray="" stroke-dashoffset="0" style="mix-blend-mode: normal"><g fill="#FAFAFA" fill-rule="nonzero" stroke="#000000" stroke-width="5"><path d="M213.61704,219.26042c-6.8249,0 -12.3572,-5.53518 -12.3572,-12.35864v-53.80497c0,-6.8249 5.5323,-12.3572 12.3572,-12.3572h33.00966c-0.17596,26.17305 -0.27947,52.34689 -0.30554,78.52081z"/><path d="M233.89922,219.26042c-0.02607,-26.17393 -0.12958,-52.34776 -0.30553,-78.52081h33.00966c6.8249,0 12.3572,5.5323 12.3572,12.3572v53.80497c0,6.82346 -5.5323,12.35864 -12.3572,12.35864z" data-paper-data="{&quot;index&quot;:null}"/></g><path d="M213.61704,219.26041c-6.8249,0 -12.3572,-5.53518 -12.3572,-12.35864v-53.80497c0,-6.8249 5.5323,-12.3572 12.3572,-12.3572h33.00966c-0.17596,26.17305 -0.27947,52.34689 -0.30554,78.52081z" fill="#FAFAFA" fill-rule="nonzero" stroke="none" stroke-width="1"/><path d="M233.89922,219.26041c-0.02607,-26.17393 -0.12958,-52.34776 -0.30553,-78.52081h33.00966c6.8249,0 12.3572,5.5323 12.3572,12.3572v53.80497c0,6.82346 -5.5323,12.35864 -12.3572,12.35864z" data-paper-data="{&quot;index&quot;:null}" fill="#FAFAFA" fill-rule="nonzero" stroke="none" stroke-width="1"/><path d="M255.73688,167.26062l-2.83472,-2.83472c-0.42806,-0.42793 -1.12194,-0.42793 -1.55,0l-2.28663,2.28882l4.38472,4.38472l2.28663,-2.28882c0.42647,-0.42781 0.42647,-1.12 0,-1.54781zM251.90025,172.64945l-14.93655,14.93874c-0.12086,0.11987 -0.26799,0.20994 -0.42971,0.26308l-5.29236,1.76485c-0.19677,0.06528 -0.41354,0.01394 -0.56013,-0.13265c-0.14659,-0.14659 -0.19793,-0.36336 -0.13265,-0.56013l1.76485,-5.29236c0.05378,-0.16193 0.14461,-0.30907 0.26528,-0.42971l14.93656,-14.93874l4.38472,4.38472z" fill="#000000" fill-rule="nonzero" stroke="none" stroke-width="1"/><path d="M223.94327,168.49054c0,-1.81621 1.47233,-3.28854 3.28854,-3.28854h14.25035c0.6054,0 1.09618,0.49078 1.09618,1.09618c0,0.6054 -0.49078,1.09618 -1.09618,1.09618h-14.25035c-0.6054,0 -1.09618,0.49078 -1.09618,1.09618v24.11597c0,0.6054 0.49077,1.09618 1.09618,1.09618h24.11597c0.6054,0 1.09618,-0.49077 1.09618,-1.09618v-13.15416c0,-0.6054 0.49078,-1.09618 1.09618,-1.09618c0.6054,0 1.09618,0.49078 1.09618,1.09618v13.15416c0,1.81621 -1.47233,3.28854 -3.28854,3.28854h-24.11597c-1.81621,0 -3.28854,-1.47233 -3.28854,-3.28854z" fill="#000000" fill-rule="evenodd" stroke="none" stroke-width="1"/></g></g></svg>