<svg version="1.1" xmlns="http://www.w3.org/2000/svg" xmlns:xlink="http://www.w3.org/1999/xlink" width="82.70071" height="83.52081" viewBox="0,0,82.70071,83.52081"><g transform="translate(-198.75985,-138.23961)"><g data-paper-data="{&quot;isPaintingLayer&quot;:true}" fill-rule="nonzero" stroke-linecap="butt" stroke-linejoin="miter" stroke-miterlimit="10" stroke-dasharray="" stroke-dashoffset="0" style="mix-blend-mode: normal"><g fill="#FAFAFA" stroke="#000000" stroke-width="5"><path d="M213.61706,219.26042c-6.8249,0 -12.3572,-5.53518 -12.3572,-12.35864v-53.80497c0,-6.8249 5.5323,-12.3572 12.3572,-12.3572h33.00966c-0.17596,26.17305 -0.27947,52.34689 -0.30554,78.52081z"/><path d="M233.89924,219.26042c-0.02607,-26.17393 -0.12958,-52.34776 -0.30553,-78.52081h33.00966c6.8249,0 12.3572,5.5323 12.3572,12.3572v53.80497c0,6.82346 -5.5323,12.35864 -12.3572,12.35864z" data-paper-data="{&quot;index&quot;:null}"/></g><path d="M213.61705,219.26041c-6.8249,0 -12.3572,-5.53518 -12.3572,-12.35864v-53.80497c0,-6.8249 5.5323,-12.3572 12.3572,-12.3572h33.00966c-0.17596,26.17305 -0.27947,52.34689 -0.30554,78.52081z" fill="#FAFAFA" stroke="none" stroke-width="1"/><path d="M233.89923,219.26041c-0.02607,-26.17393 -0.12958,-52.34776 -0.30553,-78.52081h33.00966c6.8249,0 12.3572,5.5323 12.3572,12.3572v53.80497c0,6.82346 -5.5323,12.35864 -12.3572,12.35864z" data-paper-data="{&quot;index&quot;:null}" fill="#FAFAFA" stroke="none" stroke-width="1"/><path d="M226.93793,165.53056c-1.20234,0 -2.17701,0.97468 -2.17701,2.17701v25.22291l4.35403,-4.35403c0.81635,-0.8166 1.92363,-1.27549 3.0783,-1.27574h20.86888c1.20234,0 2.17701,-0.97468 2.17701,-2.17701v-17.41613c0,-1.20234 -0.97468,-2.17701 -2.17701,-2.17701zM253.06212,163.35355c2.40466,0 4.35403,1.94937 4.35403,4.35403v17.41613c0,2.40466 -1.94936,4.35403 -4.35403,4.35403h-20.86888c-0.57734,0.00012 -1.13097,0.22957 -1.53915,0.63787l-6.21103,6.21103c-0.31107,0.31185 -0.77941,0.4055 -1.18648,0.23724c-0.40706,-0.16826 -0.67261,-0.56526 -0.6727,-1.00573v-27.85057c0,-2.40466 1.94937,-4.35403 4.35403,-4.35403z" fill="#000000" stroke="none" stroke-width="1"/><path d="M229.11494,170.9731c0,-0.60117 0.48734,-1.0885 1.08851,-1.0885h19.59315c0.60117,0 1.0885,0.48734 1.0885,1.0885c0,0.60117 -0.48734,1.08851 -1.0885,1.08851h-19.59315c-0.60117,0 -1.08851,-0.48735 -1.08851,-1.08851zM229.11494,176.41564c0,-0.60117 0.48734,-1.0885 1.08851,-1.0885h19.59315c0.60117,0 1.0885,0.48734 1.0885,1.0885c0,0.60117 -0.48734,1.08851 -1.0885,1.08851h-19.59315c-0.60117,0 -1.08851,-0.48735 -1.08851,-1.08851zM229.11494,181.85818c0,-0.60117 0.48734,-1.0885 1.08851,-1.0885h10.88508c0.60117,0 1.0885,0.48734 1.0885,1.0885c0,0.60117 -0.48734,1.08851 -1.0885,1.08851h-10.88508c-0.60117,0 -1.08851,-0.48734 -1.08851,-1.08851z" fill="#000000" stroke="none" stroke-width="1"/></g></g></svg>